<?xml version="1.0" encoding="UTF-8" standalone="no"?>
<svg
   version="1.1"
   id="Layer_1"
   x="0px"
   y="0px"
   width="504.93286"
   viewBox="0 0 504.93286 501.74393"
   enable-background="new 0 0 1024 1024"
   xml:space="preserve"
   sodipodi:docname="logo.svg"
   height="501.74393"
   inkscape:version="1.4.3 (0d15f75042, 2025-12-25)"
   xmlns:inkscape="http://www.inkscape.org/namespaces/inkscape"
   xmlns:sodipodi="http://sodipodi.sourceforge.net/DTD/sodipodi-0.dtd"
   xmlns="http://www.w3.org/2000/svg"
   xmlns:svg="http://www.w3.org/2000/svg"><defs
   id="defs1" /><sodipodi:namedview
   id="namedview1"
   pagecolor="#ffffff"
   bordercolor="#000000"
   borderopacity="0.25"
   inkscape:showpageshadow="2"
   inkscape:pageopacity="0.0"
   inkscape:pagecheckerboard="true"
   inkscape:deskcolor="#d1d1d1"
   inkscape:zoom="0.80566406"
   inkscape:cx="250.72485"
   inkscape:cy="273.06667"
   inkscape:window-width="1920"
   inkscape:window-height="1012"
   inkscape:window-x="1920"
   inkscape:window-y="0"
   inkscape:window-maximized="1"
   inkscape:current-layer="Layer_1" />
<path
   fill="#000000"
   opacity="1"
   stroke="none"
   d="m 313.77035,455.89517 c 57.0492,-13.07324 102.40473,-43.19721 136.41815,-90.20203 22.59473,-31.22467 36.45221,-66.06976 40.80988,-104.43753 7.17316,-63.15719 -9.2998,-119.66772 -48.43518,-169.658292 -0.922,-1.17768 -1.82044,-2.37983 -2.63165,-3.6341 -0.20502,-0.31698 -0.0307,-0.87933 -0.0307,-1.35122 1.85076,-0.43403 2.36193,1.11389 3.14007,2.01425 31.23828,36.144592 51.34772,77.564762 58.6073,124.918552 10.92181,71.2416 -5.3128,135.90676 -49.91278,192.39437 -39.73376,50.32429 -91.7987,81.4068 -155.42364,91.95832 C 222.45297,510.14608 155.63724,493.10714 96.699741,447.26956 48.166411,409.52359 18.018031,359.72958 5.247161,299.59671 1.300111,281.01162 -0.67379899,262.08545 0.20730101,243.07449 3.116181,180.3114 25.185241,125.40738 68.376831,79.376888 102.59494,42.909658 144.06656,18.897368 192.60962,6.9012577 c 27.7835,-6.86596995 55.86926,-8.14635 84.27774,-5.86242 24.45514,1.96611 47.81421,8.24096 70.54217,17.1731303 1.91113,0.7511 4.24408,1.00571 5.55231,3.45517 -2.05982,0.83109 -3.61047,-0.34488 -5.13562,-0.94455 C 315.55331,8.0260877 281.95614,2.8571277 247.4779,5.0132877 195.77771,8.2464677 150.02826,26.904258 110.81421,60.885098 70.129971,96.139918 45.256341,140.57083 35.941221,193.49044 c -6.74155,38.29905 -3.12256,75.89676 9.94513,112.54572 0.53885,1.51111 0.83878,3.24878 2.75851,4.53381 7.54267,-4.61023 14.37378,-10.39966 21.06147,-16.34784 15.68243,-13.94824 30.924919,-28.39383 47.434259,-41.40075 8.3404,-6.57105 17.4809,-11.55338 27.5427,-14.89811 1.5686,-0.52145 3.37359,-0.88439 4.56359,-1.90835 15.92844,-13.70541 35.71051,-19.82938 54.56244,-27.69632 37.04203,-15.45776 74.36692,-30.18842 112.89853,-41.62122 3.65833,-1.08544 7.23627,-2.49185 11.14765,-2.57421 9.89276,-0.20835 15.32037,7.30441 11.98724,16.69561 -1.61505,4.55078 -4.7262,7.96042 -8.37543,10.98297 -10.9096,9.03589 -23.48419,15.17505 -36.39264,20.63059 -9.19745,3.88714 -18.47253,7.71057 -27.98071,10.71527 -14.79718,4.67618 -27.26083,13.88959 -41.18939,20.20743 -4.07373,1.84781 -8.04245,3.92697 -12.34653,6.04114 10.47016,1.48037 20.88953,0.89901 31.22318,1.60379 12.1726,0.83013 21.20282,5.06134 26.979,16.38558 5.05994,9.9199 11.52417,19.11435 15.84473,29.45804 5.42639,12.99103 1.06915,26.65491 -10.6435,33.27167 -0.83374,0.47095 -1.78784,0.72894 -3.27984,1.32214 -2.05658,-6.1817 -3.7392,-12.26257 -6.8404,-17.72485 -3.53582,-6.22796 -7.70398,-12.15802 -10.64306,-18.6496 -4.63849,-10.24505 -12.57929,-14.36694 -23.26322,-15.09643 -10.7832,-0.73621 -21.53207,-1.974 -32.29644,-2.98737 -1.84656,-0.17376 -3.6384,-0.14251 -5.55771,2.24726 6.25049,1.0166 11.99197,2.1452 17.7854,2.84338 7.26294,0.87531 14.48666,2.03882 21.83243,2.35297 5.8457,0.24993 11.49005,2.27368 14.51953,7.57208 6.85019,11.98071 14.62869,23.51709 19.35977,36.60126 5.41028,14.96276 -5.73847,32.28491 -21.83356,34.0462 -0.20184,-0.36926 -0.69894,-0.85352 -0.61072,-1.1792 2.57019,-9.48767 -2.30966,-16.72961 -7.16021,-23.98523 -2.22235,-3.32422 -4.92716,-6.42749 -6.56781,-10.01733 -3.08826,-6.75708 -8.32584,-9.77472 -15.31833,-11.13153 -6.51868,-1.26484 -12.8942,-3.27015 -19.32822,-4.96674 -1.73858,-0.4585 -3.44998,-0.70544 -5.97162,0.14813 8.10489,4.17408 16.01612,6.57794 24.03244,8.55445 6.10697,1.50573 10.76554,3.98272 13.55442,10.28747 2.53109,5.72187 6.50161,10.83911 10.07672,16.05915 4.76016,6.95031 3.95849,14.0083 0.14523,20.73705 -3.79642,6.69916 -9.09253,12.38581 -15.21637,17.03712 -5.39813,4.10009 -11.61569,4.84484 -17.95371,1.99413 -5.00531,-2.25134 -7.64987,-6.29052 -8.10501,-11.71008 -0.46621,-5.55194 1.94281,-9.92706 6.71839,-13.65411 -6.40039,-4.00604 -12.51953,-4.88056 -19.12363,-3.29999 -1.49423,0.35761 -2.0101,1.45551 -2.80801,2.5423 -8.9011,12.12353 -18.83206,23.3493 -30.1994,33.20807 -8.71796,7.56097 -18.90256,12.34515 -30.23536,14.65503 -1.09109,0.22241 -2.11889,0.75531 -3.62777,1.31018 2.84012,3.61816 6.44143,5.71356 9.76443,8.05432 30.42319,21.43103 63.76355,36.00348 100.6904,41.48279 26.86566,3.98645 53.75104,3.62249 80.42713,-2.1247 1.13836,-0.24518 2.29022,-0.42755 3.84301,-0.74841 z"
   id="path1"
   style="fill:#ffffff;fill-opacity:1" />
</svg>
